<?xml version="1.0" encoding="UTF-8" standalone="no"?>
<!-- Created with Inkscape (http://www.inkscape.org/) -->

<svg
   xmlns:dc="http://purl.org/dc/elements/1.1/"
   xmlns:cc="http://creativecommons.org/ns#"
   xmlns:rdf="http://www.w3.org/1999/02/22-rdf-syntax-ns#"
   xmlns:svg="http://www.w3.org/2000/svg"
   xmlns="http://www.w3.org/2000/svg"
   xmlns:sodipodi="http://sodipodi.sourceforge.net/DTD/sodipodi-0.dtd"
   xmlns:inkscape="http://www.inkscape.org/namespaces/inkscape"
   width="297mm"
   height="420mm"
   viewBox="0 0 1052.3622 1488.189"
   id="svg4286"
   version="1.1"
   inkscape:version="0.91 r"
   sodipodi:docname="Directions-right.svg">
  <defs
     id="defs4288" />
  <sodipodi:namedview
     id="base"
     pagecolor="#ffffff"
     bordercolor="#666666"
     borderopacity="1.0"
     inkscape:pageopacity="0.0"
     inkscape:pageshadow="2"
     inkscape:zoom="0.35"
     inkscape:cx="51.621066"
     inkscape:cy="621.39235"
     inkscape:document-units="px"
     inkscape:current-layer="layer1"
     showgrid="false"
     inkscape:window-width="1600"
     inkscape:window-height="847"
     inkscape:window-x="0"
     inkscape:window-y="0"
     inkscape:window-maximized="1" />
  <metadata
     id="metadata4291">
    <rdf:RDF>
      <cc:Work
         rdf:about="">
        <dc:format>image/svg+xml</dc:format>
        <dc:type
           rdf:resource="http://purl.org/dc/dcmitype/StillImage" />
        <dc:title></dc:title>
      </cc:Work>
    </rdf:RDF>
  </metadata>
  <g
     inkscape:label="Layer 1"
     inkscape:groupmode="layer"
     id="layer1"
     transform="translate(0,435.82677)">
    <g
       transform="matrix(3.7171871,0,0,3.7171871,-417.43182,-419.27143)"
       id="g4834">
      <g
         id="text4136"
         style="font-style:normal;font-variant:normal;font-weight:normal;font-stretch:normal;font-size:25.66514015px;line-height:125%;font-family:Pacifico;-inkscape-font-specification:Pacifico;letter-spacing:0px;word-spacing:0px;fill:#000000;fill-opacity:1;stroke:none;stroke-width:1px;stroke-linecap:butt;stroke-linejoin:miter;stroke-opacity:1"
         transform="scale(0.98143566,1.0189155)">
        <path
           inkscape:connector-curvature="0"
           id="path4204"
           style="font-style:normal;font-variant:normal;font-weight:normal;font-stretch:normal;font-size:35.93119431px;font-family:Heroic;-inkscape-font-specification:Heroic"
           d="m 186.78774,202.38306 0,17.75506 q 0,0.33335 -0.21054,0.50879 -0.21053,0.17545 -0.45615,0.19299 -0.24563,0 -0.45616,-0.17544 -0.21054,-0.17545 -0.21054,-0.52634 l 0,-17.28136 -1.70181,-1.70182 -8.43892,13.24612 q -0.24563,0.45616 -0.68424,0.45616 -0.43861,0 -0.68424,-0.45616 l -10.14073,-15.82516 0,21.56222 q 0,0.35089 -0.21054,0.52634 -0.21053,0.17544 -0.45616,0.17544 -0.24562,-0.0175 -0.45615,-0.19299 -0.21054,-0.17544 -0.21054,-0.50879 l 0,-23.75529 q 0,-0.29825 0.14036,-0.4737 0.14035,-0.17545 0.33334,-0.22808 0.21054,-0.0526 0.42107,0.0351 0.21054,0.0877 0.36844,0.33335 l 10.91269,17.01819 8.89508,-13.9479 3.24574,3.26328 z" />
        <path
           inkscape:connector-curvature="0"
           id="path4206"
           style="font-style:normal;font-variant:normal;font-weight:normal;font-stretch:normal;font-size:35.93119431px;font-family:Heroic;-inkscape-font-specification:Heroic"
           d="m 205.73583,203.62872 0,16.31641 q 0,0.29826 -0.17545,0.45616 -0.1579,0.1579 -0.43861,0.1579 -0.57897,0 -0.57897,-0.61406 l 0,-6.66692 0,-2.96502 q -0.10527,-1.87727 -0.98249,-3.33346 -0.85968,-1.47374 -2.5615,-2.29834 -0.75442,-0.33334 -1.50883,-0.49124 -0.73687,-0.1579 -1.52638,-0.19299 -1.05267,-0.0351 -2.0878,0.24562 l -5.2809,5.2809 q -0.22808,0.91232 -0.24562,1.772 -0.0877,1.98253 0.61406,3.73699 0.71932,1.75445 2.38605,3.08783 0.89477,0.68424 1.96499,1.07022 1.07022,0.36843 2.22815,0.45616 0.89477,0.0351 1.75446,-0.1579 0.85968,-0.21054 1.70182,-0.59652 0.73687,-0.35089 1.31584,-0.84214 0.57897,-0.49124 1.01758,-1.08776 l 0,1.59656 q -0.56143,0.64914 -1.28075,1.12285 -1.63164,0.9474 -3.57909,1.12285 -1.92989,0.17544 -3.89488,-0.61406 -1.38602,-0.56143 -2.42115,-1.4562 -1.03512,-0.89477 -1.71936,-2.03516 -0.66669,-1.15794 -1.00004,-2.50887 -0.3158,-1.36847 -0.28071,-2.85976 0.0351,-0.6316 0.12281,-1.24566 0.0877,-0.61406 0.26317,-1.19303 l 5.73706,-5.77215 q 0.64915,-0.19299 1.29829,-0.26317 0.6667,-0.0702 1.38602,-0.0526 1.10531,0.0351 2.12289,0.29826 1.03513,0.24562 1.96499,0.7895 1.71936,1.15794 2.49132,3.17556 l 0,-3.43873 q 0,-0.61406 0.57897,-0.61406 0.28071,0 0.43861,0.1579 0.17545,0.15791 0.17545,0.45616 z" />
        <path
           inkscape:connector-curvature="0"
           id="path4208"
           style="font-style:normal;font-variant:normal;font-weight:normal;font-stretch:normal;font-size:35.93119431px;font-family:Heroic;-inkscape-font-specification:Heroic"
           d="m 213.63087,208.96226 6.43884,-5.77215 q 0.26317,-0.22808 0.52634,-0.21054 0.28071,0 0.43861,0.15791 0.1579,0.14035 0.1579,0.38598 0.0175,0.24562 -0.22808,0.49124 l -6.56165,5.82479 -0.77196,-0.87723 z m 7.94767,10.86006 q 0.17545,0.28071 0.12281,0.50879 -0.0351,0.22808 -0.19299,0.36844 -0.1579,0.12281 -0.38598,0.12281 -0.22808,-0.0175 -0.38598,-0.21053 l -8.14066,-9.24597 -3.0352,2.64922 0,6.21077 q 0,0.3158 -0.19299,0.4737 -0.17545,0.14035 -0.40353,0.14035 -0.22807,-0.0175 -0.42106,-0.1579 -0.17545,-0.1579 -0.17545,-0.45615 l 0,-21.49205 q 0,-0.3158 0.17545,-0.4737 0.19299,-0.1579 0.42106,-0.14036 0.22808,0 0.40353,0.1579 0.19299,0.1579 0.19299,0.45616 l 0,13.84263 3.17556,-2.82467 0.77196,0.85968 8.07048,9.21088 z" />
        <path
           inkscape:connector-curvature="0"
           id="path4210"
           style="font-style:normal;font-variant:normal;font-weight:normal;font-stretch:normal;font-size:35.93119431px;font-family:Heroic;-inkscape-font-specification:Heroic"
           d="m 238.59673,212.92732 -15.45673,0 q 0.12281,1.10531 0.54388,2.14043 0.42107,1.03513 1.19303,1.94745 1.10531,1.29829 2.63168,1.96498 1.52637,0.64915 3.22819,0.68424 1.42111,0.0351 2.80713,-0.40352 1.38602,-0.43862 2.57904,-1.35093 0.22808,-0.17545 0.47371,-0.1579 0.26316,0.0175 0.40352,0.17544 0.1579,0.14036 0.1579,0.36844 0,0.22808 -0.24562,0.4737 -0.57897,0.54388 -1.28075,0.9474 -0.70178,0.38598 -1.49129,0.64915 -0.77196,0.24563 -1.61409,0.36844 -0.84214,0.12281 -1.70182,0.10526 -1.00004,-0.0175 -1.98254,-0.21053 -0.98249,-0.19299 -1.87726,-0.56142 -0.89477,-0.38598 -1.66673,-0.94741 -0.77196,-0.57897 -1.36847,-1.35093 -1.00004,-1.29829 -1.54392,-2.75449 -0.54388,-1.47374 -0.54388,-3.22819 l 1.24566,0 15.42164,0 q -0.0351,-1.17549 -0.28071,-2.15798 l -5.43881,-5.4388 q -1.00003,-0.24563 -2.10534,-0.22808 -1.10531,0.0175 -2.12289,0.29826 -1.14039,0.3158 -2.07025,0.92986 -0.91232,0.59651 -1.59655,1.43865 -0.68424,0.82459 -1.12285,1.84217 -0.42107,1.01758 -0.57897,2.12289 l -1.28075,0 q 0.14035,-1.29829 0.6316,-2.49132 0.50879,-1.19303 1.31584,-2.17552 0.80705,-0.9825 1.89481,-1.70182 1.08776,-0.73687 2.4036,-1.10531 1.19303,-0.29826 2.54395,-0.3158 1.35093,-0.0175 2.64923,0.3158 0.0351,0.0175 0.0526,0.0175 0.0175,0 0.0526,0.0175 l 5.80723,5.80724 q 0.19299,0.66669 0.28072,1.36847 0.10526,0.70178 0.12281,1.4562 0.0175,0.19299 -0.0175,0.38598 -0.0351,0.19299 -0.1579,0.36843 -0.12281,0.17545 -0.33334,0.28072 -0.21054,0.10526 -0.56143,0.10526 z" />
        <path
           inkscape:connector-curvature="0"
           id="path4212"
           style="font-style:normal;font-variant:normal;font-weight:normal;font-stretch:normal;font-size:35.93119431px;font-family:Heroic;-inkscape-font-specification:Heroic"
           d="m 242.78988,220.2083 q 0,0.29826 -0.17545,0.4737 -0.17544,0.1579 -0.42107,0.1579 -0.29826,0 -0.4737,-0.1579 -0.1579,-0.17544 -0.1579,-0.4737 l 0,-16.80766 q 0,-0.24562 0.1579,-0.42107 0.17544,-0.17544 0.4737,-0.17544 0.24563,0 0.42107,0.17544 0.17545,0.17545 0.17545,0.42107 l 0,16.80766 z m 6.36866,-17.40417 q -1.52637,0 -2.8773,0.61406 -1.33339,0.59651 -2.28079,1.66673 l 0,1.80708 q 0.77196,-1.31583 2.03516,-2.10534 1.26321,-0.7895 3.12293,-0.7895 0.29826,0 0.45616,-0.14036 0.17544,-0.1579 0.17544,-0.45616 0,-0.29825 -0.17544,-0.43861 -0.1579,-0.1579 -0.45616,-0.1579 z" />
        <path
           inkscape:connector-curvature="0"
           id="path4214"
           style="font-style:normal;font-variant:normal;font-weight:normal;font-stretch:normal;font-size:35.93119431px;font-family:Heroic;-inkscape-font-specification:Heroic"
           d="m 259.80807,214.96249 q 0.22808,0.80705 0.71933,1.45619 0.49124,0.63161 1.15793,1.12285 0.6667,0.49125 1.4562,0.85969 0.80705,0.36843 1.63164,0.61405 0.84214,0.24563 1.66673,0.40353 0.82459,0.14035 1.54392,0.21053 0.42107,0.0526 0.89477,0.0877 0.4737,0.0351 0.91232,0.0351 0.87722,0 1.87726,-0.10526 1.01758,-0.10527 2.01762,-0.33335 1.01758,-0.24562 1.96499,-0.6316 0.96495,-0.38598 1.73691,-0.94741 0.77196,-0.57897 1.29829,-1.35093 0.54388,-0.77195 0.73687,-1.77199 0,-0.0175 -0.35089,-0.42107 -0.35089,-0.40353 -0.87722,-1.00004 -0.5088,-0.61406 -1.12285,-1.29829 -0.59652,-0.70179 -1.12285,-1.2983 -0.52634,-0.61406 -0.87723,-1.00004 -0.35089,-0.40352 -0.35089,-0.40352 -1.22812,-0.24563 -2.61414,-0.36844 -1.36847,-0.12281 -2.78958,-0.22808 -1.40356,-0.12281 -2.78958,-0.28071 -1.38601,-0.17544 -2.59659,-0.49125 -1.33338,-1.59655 -2.38605,-2.85975 -0.45616,-0.54388 -0.87723,-1.05268 -0.42107,-0.52633 -0.77196,-0.92986 -0.33334,-0.42106 -0.54388,-0.68423 -0.19299,-0.26317 -0.19299,-0.28071 0.0877,-1.35093 0.73687,-2.36852 0.66669,-1.01758 1.64919,-1.75445 1.00004,-0.73687 2.19306,-1.21057 1.21058,-0.4737 2.38606,-0.71933 0.7895,-0.14035 1.59655,-0.22808 0.8246,-0.0877 1.64919,-0.0877 0.92986,0 1.96499,0.0877 1.03512,0.0702 2.07025,0.28072 1.05267,0.21053 2.03517,0.56142 1.00003,0.35089 1.85972,0.89477 0.85968,0.54388 1.50882,1.2983 0.6667,0.73687 1.03513,1.73691 0.14036,0.35089 0.0175,0.57897 -0.10527,0.21053 -0.31581,0.28071 -0.21053,0.0526 -0.43861,-0.0351 -0.22808,-0.10527 -0.33334,-0.40353 -0.33335,-0.89477 -0.92986,-1.54391 -0.57897,-0.6667 -1.35093,-1.12285 -0.77196,-0.47371 -1.66673,-0.75442 -0.89477,-0.28071 -1.82463,-0.43861 -0.92986,-0.1579 -1.85972,-0.21054 -0.91232,-0.0526 -1.73691,-0.0526 -0.24563,0 -0.4737,0.0351 -0.21054,0.0175 -0.45616,0.0175 -1.03513,0.0702 -2.2457,0.33335 -1.21057,0.24562 -2.31588,0.75442 -1.10531,0.49124 -1.98253,1.2632 -0.87723,0.77196 -1.24566,1.87727 -0.0877,0.17544 -0.14036,0.38598 -0.0526,0.19299 -0.0877,0.38597 1.1053,1.35093 1.94744,2.42115 0.36844,0.45616 0.70178,0.89477 0.35089,0.42107 0.61406,0.77196 0.28071,0.33335 0.45616,0.54388 0.17544,0.21053 0.17544,0.21053 1.15794,0.31581 2.50887,0.47371 1.36847,0.1579 2.78958,0.28071 1.42111,0.12281 2.84221,0.26317 1.42111,0.14035 2.71941,0.40352 l 5.50898,6.35112 q -0.1579,1.24566 -0.71933,2.19307 -0.54388,0.9474 -1.40356,1.66673 -0.84214,0.70178 -1.91235,1.17548 -1.07022,0.4737 -2.22816,0.77196 -1.15794,0.29826 -2.36851,0.42107 -1.19303,0.12281 -2.29833,0.12281 -0.9825,0 -2.10535,-0.0877 -1.12285,-0.10527 -2.26324,-0.35089 -1.12285,-0.24563 -2.21061,-0.64915 -1.08776,-0.42107 -2.00008,-1.03513 -0.91231,-0.61406 -1.59655,-1.45619 -0.66669,-0.84214 -0.96495,-1.96499 -0.0877,-0.28071 0.0526,-0.4737 0.14036,-0.21054 0.3509,-0.26317 0.21053,-0.0702 0.43861,0.0351 0.22808,0.0877 0.3158,0.38598 z" />
        <path
           inkscape:connector-curvature="0"
           id="path4216"
           style="font-style:normal;font-variant:normal;font-weight:normal;font-stretch:normal;font-size:35.93119431px;font-family:Heroic;-inkscape-font-specification:Heroic"
           d="m 299.1429,208.80436 q 0.50879,1.63164 0.45616,3.49136 -0.0351,1.29829 -0.40353,2.50887 -0.35089,1.21057 -1.01758,2.2457 -0.64915,1.03512 -1.59655,1.84217 -0.9474,0.80705 -2.15798,1.28075 -1.66673,0.70178 -3.61417,0.64915 -1.56146,-0.0351 -2.98257,-0.57897 -1.40356,-0.56142 -2.4036,-1.66673 l -0.0175,-1.75445 q 0.85968,1.24566 2.22815,2.00007 1.36847,0.73687 3.17556,0.80705 1.08776,0.0175 2.14043,-0.26317 1.07022,-0.28071 2.00008,-0.82459 0.92986,-0.54388 1.66673,-1.35093 0.73687,-0.82459 1.17548,-1.89481 0.28071,-0.66669 0.42107,-1.43865 0.1579,-0.77196 0.19299,-1.52637 0.0351,-0.77196 -0.0526,-1.49129 -0.0877,-0.73687 -0.29826,-1.4211 l -5.123,-5.14055 q -0.42107,-0.12281 -0.84214,-0.19299 -0.42107,-0.0702 -0.87723,-0.10527 -0.89477,-0.0175 -1.75445,0.17545 -0.84214,0.19299 -1.68427,0.57897 -1.70182,0.82459 -2.57905,2.29833 -0.85968,1.4562 -0.96495,3.33346 l 0,16.21115 q 0,0.61405 -0.57897,0.61405 -0.28071,0 -0.45616,-0.1579 -0.1579,-0.1579 -0.1579,-0.45615 l 0,-22.96579 q 0,-0.28071 0.1579,-0.43862 0.17545,-0.17544 0.45616,-0.17544 0.28072,0 0.42107,0.17544 0.1579,0.15791 0.1579,0.43862 l 0,3.36855 q 0.38598,-1.01759 1.01758,-1.73691 0.63161,-0.71933 1.47375,-1.28075 1.49128,-0.89477 3.24573,-1.10531 1.772,-0.22808 3.57909,0.35089 l 5.5967,5.59671 z" />
        <path
           inkscape:connector-curvature="0"
           id="path4218"
           style="font-style:normal;font-variant:normal;font-weight:normal;font-stretch:normal;font-size:35.93119431px;font-family:Heroic;-inkscape-font-specification:Heroic"
           d="m 317.81027,203.62872 0,16.31641 q 0,0.29826 -0.17544,0.45616 -0.1579,0.1579 -0.43862,0.1579 -0.57897,0 -0.57897,-0.61406 l 0,-6.66692 0,-2.96502 q -0.10526,-1.87727 -0.98249,-3.33346 -0.85968,-1.47374 -2.5615,-2.29834 -0.75441,-0.33334 -1.50883,-0.49124 -0.73687,-0.1579 -1.52637,-0.19299 -1.05268,-0.0351 -2.0878,0.24562 l -5.28091,5.2809 q -0.22807,0.91232 -0.24562,1.772 -0.0877,1.98253 0.61406,3.73699 0.71933,1.75445 2.38606,3.08783 0.89477,0.68424 1.96498,1.07022 1.07022,0.36843 2.22816,0.45616 0.89477,0.0351 1.75445,-0.1579 0.85968,-0.21054 1.70182,-0.59652 0.73687,-0.35089 1.31584,-0.84214 0.57897,-0.49124 1.01758,-1.08776 l 0,1.59656 q -0.56142,0.64914 -1.28075,1.12285 -1.63164,0.9474 -3.57908,1.12285 -1.9299,0.17544 -3.89489,-0.61406 -1.38602,-0.56143 -2.42114,-1.4562 -1.03513,-0.89477 -1.71937,-2.03516 -0.66669,-1.15794 -1.00003,-2.50887 -0.31581,-1.36847 -0.28072,-2.85976 0.0351,-0.6316 0.12281,-1.24566 0.0877,-0.61406 0.26317,-1.19303 l 5.73706,-5.77215 q 0.64915,-0.19299 1.2983,-0.26317 0.66669,-0.0702 1.38602,-0.0526 1.1053,0.0351 2.12288,0.29826 1.03513,0.24562 1.96499,0.7895 1.71937,1.15794 2.49132,3.17556 l 0,-3.43873 q 0,-0.61406 0.57897,-0.61406 0.28072,0 0.43862,0.1579 0.17544,0.15791 0.17544,0.45616 z" />
        <path
           inkscape:connector-curvature="0"
           id="path4220"
           style="font-style:normal;font-variant:normal;font-weight:normal;font-stretch:normal;font-size:35.93119431px;font-family:Heroic;-inkscape-font-specification:Heroic"
           d="m 321.26655,209.57632 q -0.24563,0.9474 -0.29826,1.9299 -0.0351,0.98249 0.12281,1.94744 0.17545,0.96495 0.57897,1.87726 0.40352,0.89477 1.03513,1.66673 0.70178,0.85968 1.63164,1.4562 0.9474,0.57897 2.00007,0.89477 1.05268,0.29826 2.15798,0.3158 1.10531,0 2.15798,-0.28071 1.05267,-0.29826 1.98253,-0.87723 0.9474,-0.59651 1.64919,-1.50883 0.0877,-0.0702 0.17544,-0.12281 0.10527,-0.0702 0.22808,-0.10527 0.29826,-0.0351 0.45616,0.12282 0.1579,0.14035 0.24562,0.38598 0,0.35089 -0.14035,0.49124 -0.8246,1.03513 -1.9299,1.71937 -1.08776,0.68423 -2.31588,1.01758 -1.21057,0.33334 -2.49132,0.33334 -1.28075,-0.0175 -2.50887,-0.35089 -1.21057,-0.35089 -2.31588,-1.03512 -1.08776,-0.68424 -1.91235,-1.68428 -2.21061,-2.70186 -2.00008,-6.56165 0.0702,-1.1404 0.36844,-2.22816 l 2.92993,-2.92993 q 0.54388,-0.54388 1.07022,-1.07022 0.54388,-0.54388 0.9474,-0.9474 0.42107,-0.42107 0.68424,-0.6667 0.26317,-0.26316 0.26317,-0.26316 1.35093,-0.28072 2.5615,-0.29826 1.21057,-0.0175 2.29833,0.28071 1.10531,0.28071 2.0878,0.92986 1.00004,0.64915 1.91235,1.70182 0.14036,0.19299 0.14036,0.33335 0.0351,0.24562 -0.10527,0.43861 -0.12281,0.19299 -0.40352,0.22808 -0.35089,0.0526 -0.56143,-0.21053 -1.45619,-1.71937 -3.29837,-2.26325 -1.82463,-0.54388 -3.87734,-0.19299 l -5.52652,5.52653 z" />
        <path
           inkscape:connector-curvature="0"
           id="path4222"
           style="font-style:normal;font-variant:normal;font-weight:normal;font-stretch:normal;font-size:35.93119431px;font-family:Heroic;-inkscape-font-specification:Heroic"
           d="m 353.75902,212.92732 -15.45673,0 q 0.12281,1.10531 0.54388,2.14043 0.42107,1.03513 1.19303,1.94745 1.10531,1.29829 2.63168,1.96498 1.52637,0.64915 3.22819,0.68424 1.42111,0.0351 2.80713,-0.40352 1.38601,-0.43862 2.57904,-1.35093 0.22808,-0.17545 0.4737,-0.1579 0.26317,0.0175 0.40353,0.17544 0.1579,0.14036 0.1579,0.36844 0,0.22808 -0.24562,0.4737 -0.57897,0.54388 -1.28075,0.9474 -0.70179,0.38598 -1.49129,0.64915 -0.77196,0.24563 -1.6141,0.36844 -0.84213,0.12281 -1.70181,0.10526 -1.00004,-0.0175 -1.98254,-0.21053 -0.98249,-0.19299 -1.87726,-0.56142 -0.89477,-0.38598 -1.66673,-0.94741 -0.77196,-0.57897 -1.36847,-1.35093 -1.00004,-1.29829 -1.54392,-2.75449 -0.54388,-1.47374 -0.54388,-3.22819 l 1.24566,0 15.42164,0 q -0.0351,-1.17549 -0.28071,-2.15798 l -5.43881,-5.4388 q -1.00004,-0.24563 -2.10534,-0.22808 -1.10531,0.0175 -2.12289,0.29826 -1.14039,0.3158 -2.07025,0.92986 -0.91232,0.59651 -1.59656,1.43865 -0.68423,0.82459 -1.12285,1.84217 -0.42106,1.01758 -0.57896,2.12289 l -1.28076,0 q 0.14036,-1.29829 0.63161,-2.49132 0.50879,-1.19303 1.31584,-2.17552 0.80705,-0.9825 1.89481,-1.70182 1.08776,-0.73687 2.4036,-1.10531 1.19302,-0.29826 2.54395,-0.3158 1.35093,-0.0175 2.64923,0.3158 0.0351,0.0175 0.0526,0.0175 0.0176,0 0.0526,0.0175 l 5.80724,5.80724 q 0.19299,0.66669 0.28072,1.36847 0.10526,0.70178 0.12281,1.4562 0.0175,0.19299 -0.0176,0.38598 -0.0351,0.19299 -0.1579,0.36843 -0.12281,0.17545 -0.33334,0.28072 -0.21054,0.10526 -0.56143,0.10526 z" />
      </g>
      <text
         sodipodi:linespacing="125%"
         id="text4140"
         y="409.50507"
         x="625.71429"
         style="font-style:normal;font-variant:normal;font-weight:normal;font-stretch:normal;font-size:25px;line-height:125%;font-family:Pacifico;-inkscape-font-specification:Pacifico;letter-spacing:0px;word-spacing:0px;fill:#000000;fill-opacity:1;stroke:none;stroke-width:1px;stroke-linecap:butt;stroke-linejoin:miter;stroke-opacity:1"
         xml:space="preserve"><tspan
           y="409.50507"
           x="625.71429"
           id="tspan4142"
           sodipodi:role="line" /></text>
      <g
         id="text4144"
         style="font-style:normal;font-variant:normal;font-weight:normal;font-stretch:normal;font-size:27.46494484px;line-height:125%;font-family:Pacifico;-inkscape-font-specification:Pacifico;letter-spacing:0px;word-spacing:0px;fill:#000000;fill-opacity:1;stroke:none;stroke-width:1px;stroke-linecap:butt;stroke-linejoin:miter;stroke-opacity:1">
        <path
           inkscape:connector-curvature="0"
           id="path4189"
           style="font-style:normal;font-variant:normal;font-weight:normal;font-stretch:normal;font-size:54.92988968px;font-family:Norfolk;-inkscape-font-specification:Norfolk"
           d="m 159.30649,271.00681 0,-37.54973 28.16229,0 0,6.73213 -21.45698,-0.0268 0,8.04638 9.38743,0 0,6.7053 -9.38743,0 0,9.38744 21.45698,0 0,6.70531 -28.16229,0 z" />
        <path
           inkscape:connector-curvature="0"
           id="path4191"
           style="font-style:normal;font-variant:normal;font-weight:normal;font-stretch:normal;font-size:54.92988968px;font-family:Norfolk;-inkscape-font-specification:Norfolk"
           d="m 210.26683,240.16238 6.70531,0.0268 0,28.13547 -5.36424,2.70895 -14.75168,-0.0268 -5.36425,-2.68213 0,-28.1623 6.70531,0 0,24.13912 12.06955,0.0268 0,-24.16594 z" />
        <path
           inkscape:connector-curvature="0"
           id="path4193"
           style="font-style:normal;font-variant:normal;font-weight:normal;font-stretch:normal;font-size:54.92988968px;font-family:Norfolk;-inkscape-font-specification:Norfolk"
           d="m 239.7702,253.573 0,-6.67849 -12.06956,-0.0268 0,6.70531 12.06956,0 z m 2.09205,6.35664 4.61325,11.07717 -6.7053,0 -4.45233,-10.70168 -7.61723,0 0,10.70168 -6.70531,0 0,-30.87125 20.14275,0.0268 5.33742,2.68213 0,14.75168 -4.61325,2.33345 z" />
        <path
           inkscape:connector-curvature="0"
           id="path4195"
           style="font-style:normal;font-variant:normal;font-weight:normal;font-stretch:normal;font-size:54.92988968px;font-family:Norfolk;-inkscape-font-specification:Norfolk"
           d="m 250.49869,271.00681 0,-30.84443 25.48017,0 0,6.73213 -18.77486,-0.0268 0,5.36425 8.04637,0 0,6.70531 -8.04637,0 0,5.36425 18.77486,0 0,6.70531 -25.48017,0 z" />
        <path
           inkscape:connector-curvature="0"
           id="path4197"
           style="font-style:normal;font-variant:normal;font-weight:normal;font-stretch:normal;font-size:54.92988968px;font-family:Norfolk;-inkscape-font-specification:Norfolk"
           d="m 308.13752,258.93725 -2.6553,0 0,9.38743 -5.33743,2.68213 -14.7785,0 -5.36425,-2.68213 0,-25.48017 5.36425,-2.68213 14.7785,0 5.33743,2.68213 0,5.36425 -6.70531,0 0,-1.31425 -12.06956,0 -0.0268,17.43381 12.09638,-0.0268 0,-5.36425 -2.68212,0 0,-6.70531 12.04273,0 0,6.70531 z" />
        <path
           inkscape:connector-curvature="0"
           id="path4199"
           style="font-style:normal;font-variant:normal;font-weight:normal;font-stretch:normal;font-size:54.92988968px;font-family:Norfolk;-inkscape-font-specification:Norfolk"
           d="m 312.18753,271.00681 0,-30.84443 6.70531,0 0,30.84443 -6.70531,0 z" />
        <path
           inkscape:connector-curvature="0"
           id="path4201"
           style="font-style:normal;font-variant:normal;font-weight:normal;font-stretch:normal;font-size:54.92988968px;font-family:Norfolk;-inkscape-font-specification:Norfolk"
           d="m 348.39619,268.32468 -5.36425,2.70895 -14.75168,-0.0268 -5.36424,-2.68213 0,-25.45335 5.36424,-2.68212 14.7785,0 5.33743,2.70894 0,25.42653 z m -6.70531,-3.99636 0,-17.38016 -12.06956,-0.0537 0,17.40699 12.06956,0.0268 z" />
      </g>
      <g
         id="Symbol3"
         transform="matrix(0.2431675,0,0,0.2431675,154.27522,22.221253)">
        <g
           id="g4">
          <g
             id="g6">
            <path
               d="m 494.177,570.939 c -3.803,3.822 -8.811,5.733 -13.814,5.733 -5.008,0 -10.012,-1.911 -13.834,-5.733 -3.826,-3.824 -9.404,-7.156 -16.221,-10.191 11.921,-8.531 23.019,-17.223 33.365,-26.151 3.822,2.641 7.332,5.518 10.504,8.691 7.644,7.627 7.644,20.024 0,27.651 z"
               id="path8"
               inkscape:connector-curvature="0" />
            <path
               d="m 554.938,309.412 c -7.587,12.081 -17.087,23.748 -28.558,35.14 -0.354,0.354 -0.708,0.71 -1.066,1.064 -9.142,-32.145 -21.44,-64.13 -43.789,-86.479 -25.031,-25.049 -57.233,-38.115 -90.717,-36.775 -34.036,1.339 -68.072,17.362 -95.861,45.151 -27.768,27.769 -43.811,61.804 -45.151,95.841 -1.32,33.484 11.747,65.706 36.775,90.736 24.005,23.984 59.145,36.381 93.634,45.762 -7.588,10.662 -14.742,21.639 -21.502,32.932 -0.355,0.61 -0.651,1.064 -0.867,1.399 -35.514,-10.366 -71.324,-24.853 -98.915,-52.444 -32.834,-32.834 -49.941,-75.421 -48.187,-119.923 1.715,-43.889 21.816,-87.208 56.563,-121.954 72.506,-72.506 174.238,-76.034 241.877,-8.395 22.152,22.152 35.847,49.605 45.764,77.945 z"
               id="path10"
               inkscape:connector-curvature="0" />
            <path
               d="m 598.392,466.721 c -7.625,7.648 -20.02,7.648 -27.649,0 -3.329,-3.329 -6.348,-7.034 -9.046,-11.096 0.531,-0.609 1.063,-1.2 1.598,-1.813 6.09,-6.956 12.317,-14.071 26.133,-28.321 2.679,5.618 5.635,10.249 8.965,13.581 7.628,7.647 7.628,20.024 -10e-4,27.649 z"
               id="path12"
               inkscape:connector-curvature="0" />
          </g>
          <path
             d="m 504,621.832 c -5.004,0 -10.008,-1.907 -13.826,-5.726 -7.637,-7.637 -7.637,-20.017 0,-27.653 L 615.898,462.729 c 7.638,-7.633 20.017,-7.633 27.653,0 7.637,7.637 7.637,20.016 0,27.652 L 517.827,616.106 c -3.818,3.817 -8.823,5.726 -13.827,5.726 z"
             id="path14"
             inkscape:connector-curvature="0" />
          <path
             d="m 537.281,655.106 c -5.004,0 -10.009,-1.907 -13.827,-5.726 -7.637,-7.635 -7.637,-20.016 0,-27.652 L 649.171,496.005 c 7.637,-7.633 20.016,-7.633 27.653,0 7.637,7.637 7.637,20.017 0,27.653 L 551.107,649.381 c -3.818,3.816 -8.822,5.725 -13.826,5.725 z"
             id="path16"
             inkscape:connector-curvature="0" />
          <path
             d="m 570.558,688.386 c -5.004,0 -10.008,-1.907 -13.826,-5.726 -7.637,-7.636 -7.637,-20.017 0,-27.653 l 125.72,-125.724 c 7.637,-7.634 20.017,-7.634 27.653,0 7.633,7.637 7.633,20.016 0,27.652 L 584.384,682.66 c -3.819,3.817 -8.822,5.726 -13.826,5.726 z"
             id="path18"
             inkscape:connector-curvature="0" />
          <path
             d="m 648.212,677.278 c -5.004,0 -10.008,-1.909 -13.826,-5.726 -7.633,-7.637 -7.633,-20.016 0,-27.653 l 36.964,-36.964 c 7.638,-7.633 20.017,-7.633 27.653,0 7.637,7.637 7.637,20.016 0,27.652 l -36.964,36.965 c -3.818,3.817 -8.822,5.726 -13.827,5.726 z"
             id="path20"
             inkscape:connector-curvature="0" />
        </g>
        <path
           d="m 757.989,274.076 0,4.789 c -1.282,3.035 -2.444,6.109 -3.842,9.086 -10.543,22.525 -23.377,43.731 -45.821,55.872 -12.811,6.938 -27.592,10.208 -41.468,15.195 -12.395,4.475 -24.951,8.593 -37.092,13.717 -14.484,6.109 -26.94,15.372 -38.115,26.587 -3.249,3.272 -6.228,6.286 -8.927,9.065 -15.904,16.201 -23.414,24.556 -29.662,31.672 -9.596,10.918 -16.235,18.938 -45.641,47.89 -12.24,13.736 -25.404,26.291 -39.319,37.919 -11.845,9.934 -24.22,19.175 -37.03,27.886 -8.416,5.776 -17.009,11.294 -25.76,16.635 -3.153,1.931 -6.149,4.236 -8.79,6.819 -11.983,11.667 -23.827,23.491 -36.007,35.572 -1.202,-0.827 -2.483,-1.674 -4.139,-2.779 -0.591,2.091 -1.163,3.806 -1.596,5.578 -4.71,19.274 -13.381,36.579 -27.394,50.631 -5.439,5.438 -12.357,10.129 -19.472,13.066 -0.216,0.098 -0.453,0.177 -0.69,0.275 -0.453,0.177 -0.965,0.355 -1.478,0.533 -1.064,0.354 -2.227,0.708 -3.468,1.043 -0.631,0.179 -1.281,0.355 -1.952,0.514 -1.025,0.256 -2.089,0.512 -3.193,0.749 -0.729,0.157 -1.498,0.315 -2.266,0.492 -0.394,0.079 -0.788,0.158 -1.183,0.237 -1.202,0.236 -2.443,0.452 -3.705,0.688 -1.281,0.218 -2.582,0.454 -3.921,0.67 -1.36,0.218 -2.721,0.414 -4.12,0.631 -2.345,0.335 -4.749,0.67 -7.193,0.985 -1.971,0.237 -3.961,0.474 -5.991,0.711 -1.005,0.117 -2.01,0.215 -3.035,0.335 -1.025,0.098 -2.05,0.196 -3.075,0.313 -1.025,0.1 -2.049,0.198 -3.074,0.296 -1.025,0.079 -2.05,0.178 -3.074,0.275 -1.025,0.079 -2.05,0.158 -3.075,0.258 -1.025,0.077 -2.05,0.156 -3.075,0.235 -7.135,0.514 -14.091,0.868 -20.378,1.025 -0.906,0.02 -1.793,0.039 -2.661,0.06 -6.129,0.099 -11.51,-0.04 -15.609,-0.395 -0.473,-0.04 -0.906,-0.098 -1.34,-0.139 45.684,-19.629 50.098,-43.022 61.095,-68.309 8.869,-18.485 30.547,-30.526 59.243,-33.169 0.414,-0.038 0.828,-0.177 0.828,-0.196 -0.02,0 -0.098,0.02 -0.256,0.06 1.616,-2.956 2.364,-5.381 3.941,-6.977 11.332,-11.431 22.862,-22.686 34.252,-34.075 1.439,-1.439 2.562,-3.253 3.626,-5.006 0.513,-0.849 1.025,-1.695 1.557,-2.543 7.174,-11.884 14.821,-23.374 22.94,-34.47 20.517,-28.144 43.969,-53.822 70.597,-77.178 14.445,-14.642 19.115,-20.062 62.157,-62.946 2.482,-2.483 5.104,-5.085 7.864,-7.824 8.533,-8.476 16.316,-17.364 23.215,-26.744 14.78,-20.103 25.424,-42.511 30.471,-68.151 1.104,-5.597 3.095,-11.017 4.572,-16.535 7.19,-26.921 25.363,-42.571 51.418,-50.098 2.603,-0.751 5.224,-1.42 7.845,-1.971 2.618,-0.552 5.239,-1.006 7.884,-1.38 6.108,-0.849 12.256,-1.203 18.407,-1.064 0.827,0 1.674,0.039 2.521,0.079 0.02,0 0.02,0 0.02,0 1.066,0.039 2.129,0.098 3.195,0.177 2.125,0.158 4.253,0.354 6.382,0.61 1.066,0.12 2.129,0.258 3.195,0.414 0.847,0.119 1.713,0.258 2.56,0.395 0.928,0.158 2.013,0.217 2.74,0.729 2.779,1.892 5.439,3.96 8.142,5.953 -2.052,2.069 -3.826,4.533 -6.171,6.147 -14.288,9.854 -28.457,19.906 -43.161,29.11 -6.917,4.317 -8.669,10.169 -8.473,17.283 0.632,23.001 17.341,46.178 38.943,54.534 1.99,0.768 3.86,1.182 5.696,1.182 2.599,0 5.124,-0.828 7.726,-2.641 14.643,-10.189 29.501,-20.043 44.282,-30.036 1.616,-1.083 3.252,-2.167 4.927,-2.167 1.126,0.003 2.27,0.495 3.451,1.816 z"
           id="path22"
           inkscape:connector-curvature="0"
           style="clip-rule:evenodd;fill-rule:evenodd" />
        <path
           d="m 245.577,223.712 c -1.43,0 -2.859,-0.545 -3.95,-1.636 l -91.385,-91.389 c -2.182,-2.182 -2.182,-5.72 0,-7.9 2.183,-2.181 5.718,-2.183 7.901,0 l 91.385,91.389 c 2.182,2.181 2.182,5.718 0,7.901 -1.092,1.089 -2.522,1.635 -3.951,1.635 z"
           id="path54"
           inkscape:connector-curvature="0" />
        <path
           d="m 372.203,159.459 c -3.085,0 -5.586,-2.502 -5.586,-5.587 l 0,-118.541 c 0,-3.085 2.501,-5.585 5.586,-5.585 3.085,0 5.586,2.5 5.586,5.585 l 0,118.541 c 0.001,3.085 -2.5,5.587 -5.586,5.587 z"
           id="path56"
           inkscape:connector-curvature="0" />
        <path
           d="m 530.91,215.334 c -1.428,0 -2.859,-0.544 -3.949,-1.636 -2.183,-2.183 -2.183,-5.72 0,-7.901 l 70.715,-70.712 c 2.179,-2.181 5.72,-2.183 7.902,0 2.179,2.181 2.179,5.718 -0.004,7.9 l -70.715,70.713 c -1.088,1.09 -2.516,1.636 -3.949,1.636 z"
           id="path58"
           inkscape:connector-curvature="0" />
        <path
           d="m 181.321,350.335 -114.732,0 c -3.085,0 -5.586,-2.502 -5.586,-5.587 0,-3.085 2.501,-5.585 5.586,-5.585 l 114.732,0 c 3.085,0 5.586,2.5 5.586,5.585 0,3.085 -2.501,5.587 -5.586,5.587 z"
           id="path60"
           inkscape:connector-curvature="0" />
        <path
           d="m 170.287,575.955 c -1.43,0 -2.859,-0.547 -3.95,-1.638 -2.182,-2.181 -2.182,-5.719 0,-7.901 l 66.908,-66.905 c 2.183,-2.179 5.718,-2.181 7.9,0.002 2.182,2.181 2.182,5.718 0,7.9 l -66.908,66.905 c -1.091,1.09 -2.52,1.637 -3.95,1.637 z"
           id="path62"
           inkscape:connector-curvature="0" />
      </g>
    </g>
    <text
       xml:space="preserve"
       style="font-style:normal;font-variant:normal;font-weight:900;font-stretch:normal;font-size:750px;line-height:125%;font-family:'Arial Black';-inkscape-font-specification:'Arial Black, Heavy';letter-spacing:0px;word-spacing:0px;fill:#000000;fill-opacity:1;stroke:none;stroke-width:1px;stroke-linecap:butt;stroke-linejoin:miter;stroke-opacity:1"
       x="151.36421"
       y="983.79083"
       id="text4999"
       sodipodi:linespacing="125%"><tspan
         sodipodi:role="line"
         id="tspan5003"
         x="151.36421"
         y="983.79083"
         style="font-size:750px">→</tspan></text>
  </g>
</svg>
